<svg width="50" height="50" viewBox="0 0 50 50" fill="none" xmlns="http://www.w3.org/2000/svg">
<rect y="24.7487" width="35" height="35" transform="rotate(-45 0 24.7487)" fill="#FF0000"/>
<path d="M28.176 12.288L27.44 27.552H22.096L21.36 12.288H28.176ZM24.784 36.256C23.6747 36.256 22.7787 35.9573 22.096 35.36C21.4347 34.7413 21.104 33.9627 21.104 33.024C21.104 32.0853 21.4347 31.3067 22.096 30.688C22.7787 30.0693 23.6747 29.76 24.784 29.76C25.872 29.76 26.7467 30.0693 27.408 30.688C28.0907 31.3067 28.432 32.0853 28.432 33.024C28.432 33.9413 28.0907 34.7093 27.408 35.328C26.7467 35.9467 25.872 36.256 24.784 36.256Z" fill="white"/>
</svg>
