<svg width="15" height="15" viewBox="0 0 15 15" fill="none" xmlns="http://www.w3.org/2000/svg">
<path d="M7.5 13.75C6.625 13.75 5.80729 13.5859 5.04687 13.2578C4.28646 12.9297 3.625 12.4844 3.0625 11.9219C2.5 11.3594 2.05729 10.6953 1.73438 9.92969C1.41146 9.16406 1.25 8.34375 1.25 7.46875C1.25 6.59375 1.41146 5.77865 1.73438 5.02344C2.05729 4.26823 2.5 3.60937 3.0625 3.04688C3.625 2.48438 4.28646 2.04427 5.04687 1.72656C5.80729 1.40885 6.625 1.25 7.5 1.25C8.375 1.25 9.19271 1.40885 9.95313 1.72656C10.7135 2.04427 11.375 2.48438 11.9375 3.04688C12.5 3.60937 12.9427 4.26823 13.2656 5.02344C13.5885 5.77865 13.75 6.59375 13.75 7.46875C13.75 8.34375 13.5885 9.16406 13.2656 9.92969C12.9427 10.6953 12.5 11.3594 11.9375 11.9219C11.375 12.4844 10.7135 12.9297 9.95313 13.2578C9.19271 13.5859 8.375 13.75 7.5 13.75ZM9.96875 5.15625H12.3125C11.9688 4.4375 11.4974 3.83854 10.8984 3.35938C10.2995 2.88021 9.60938 2.54167 8.82812 2.34375C9.08854 2.72917 9.3099 3.14583 9.49219 3.59375C9.67448 4.04167 9.83333 4.5625 9.96875 5.15625ZM6 5.15625H9.03125C8.91667 4.60417 8.72396 4.07031 8.45312 3.55469C8.18229 3.03906 7.86458 2.58333 7.5 2.1875C7.16667 2.46875 6.88542 2.83854 6.65625 3.29688C6.42708 3.75521 6.20833 4.375 6 5.15625ZM2.375 8.89063H4.85938C4.82813 8.60938 4.8099 8.35677 4.80469 8.13281C4.79948 7.90885 4.79688 7.6875 4.79688 7.46875C4.79688 7.20833 4.80208 6.97656 4.8125 6.77344C4.82292 6.57031 4.84375 6.34375 4.875 6.09375H2.375C2.30208 6.34375 2.2526 6.56771 2.22656 6.76562C2.20052 6.96354 2.1875 7.19792 2.1875 7.46875C2.1875 7.73958 2.20052 7.98177 2.22656 8.19531C2.2526 8.40885 2.30208 8.64063 2.375 8.89063ZM6.17188 12.6562C5.91146 12.2604 5.6875 11.8333 5.5 11.375C5.3125 10.9167 5.15625 10.401 5.03125 9.82813H2.6875C3.08333 10.5677 3.54167 11.1484 4.0625 11.5703C4.58333 11.9922 5.28646 12.3542 6.17188 12.6562ZM2.6875 5.15625H5.04687C5.16146 4.59375 5.30729 4.09115 5.48437 3.64844C5.66146 3.20573 5.88542 2.77604 6.15625 2.35938C5.375 2.55729 4.69271 2.89062 4.10937 3.35938C3.52604 3.82812 3.05208 4.42708 2.6875 5.15625ZM7.5 12.8437C7.86458 12.4687 8.16927 12.0391 8.41406 11.5547C8.65885 11.0703 8.85938 10.4948 9.01563 9.82813H6C6.14583 10.4531 6.34115 11.0156 6.58594 11.5156C6.83073 12.0156 7.13542 12.4583 7.5 12.8437ZM5.82812 8.89063H9.1875C9.22917 8.56771 9.25521 8.30469 9.26562 8.10156C9.27604 7.89844 9.28125 7.6875 9.28125 7.46875C9.28125 7.26042 9.27604 7.0599 9.26562 6.86719C9.25521 6.67448 9.22917 6.41667 9.1875 6.09375H5.82812C5.78646 6.41667 5.76042 6.67448 5.75 6.86719C5.73958 7.0599 5.73438 7.26042 5.73438 7.46875C5.73438 7.6875 5.73958 7.89844 5.75 8.10156C5.76042 8.30469 5.78646 8.56771 5.82812 8.89063ZM8.84375 12.6406C9.59375 12.401 10.2682 12.0417 10.8672 11.5625C11.4661 11.0833 11.9479 10.5052 12.3125 9.82813H9.98438C9.84896 10.3906 9.6901 10.901 9.50781 11.3594C9.32552 11.8177 9.10417 12.2448 8.84375 12.6406ZM10.125 8.89063H12.625C12.6979 8.64063 12.7474 8.40885 12.7734 8.19531C12.7995 7.98177 12.8125 7.73958 12.8125 7.46875C12.8125 7.19792 12.7995 6.96354 12.7734 6.76562C12.7474 6.56771 12.6979 6.34375 12.625 6.09375H10.1406C10.1719 6.45833 10.1927 6.73698 10.2031 6.92969C10.2135 7.1224 10.2188 7.30208 10.2188 7.46875C10.2188 7.69792 10.2109 7.91406 10.1953 8.11719C10.1797 8.32031 10.1563 8.57813 10.125 8.89063Z" fill="black"/>
</svg>
